# xmcd CD database file
#
# Track frame offsets:
#	150
#	18249
#	40090
#	62253
#	80332
#	100151
#	117103
#	136004
#	152265
#	179627
#	196329
#	209659
#	231787
#	253927
#	272170
#
# Disc length: 3699 seconds
#
# Revision: 0
# Processed by: cddbd v1.5.2PL0 Copyright (c) Steve Scherf et al.
# Submitted via: CDex 1.51
#
DISCID=c20e710f
DTITLE=Andrew Woodvine - Coco Noel - A Christmas Collection
DYEAR=2003
DGENRE=Jazz
TTITLE0=Chestnuts Roasting On An Open Fire
TTITLE1=Joy To The World
TTITLE2=Coventry Carol
TTITLE3=Santa Claus Is Coming To Town
TTITLE4=God Rest Ye Merry Gentlemen
TTITLE5=The Christmas Waltz
TTITLE6=Good King Wenceslas
TTITLE7=O Christmas Tree
TTITLE8=What Child Is This
TTITLE9=It's Xmas (Again)
TTITLE10=Deck The Hall
TTITLE11=Coco Noel
TTITLE12=Jingle Bells
TTITLE13=O Little Town Of Bethlehem
TTITLE14=It's Xmas (Again) (Reprise)
EXTD=YEAR: 2003
EXTT0=
EXTT1=
EXTT2=
EXTT3=
EXTT4=
EXTT5=
EXTT6=
EXTT7=
EXTT8=
EXTT9=
EXTT10=
EXTT11=
EXTT12=
EXTT13=
EXTT14=
PLAYORDER=
